<svg id="svg2" xmlns:rdf="http://www.w3.org/1999/02/22-rdf-syntax-ns#" xmlns="http://www.w3.org/2000/svg" height="320" width="1543.4" version="1.1" xmlns:cc="http://creativecommons.org/ns#" xmlns:dc="http://purl.org/dc/elements/1.1/" viewBox="0 0 1543.4268 320.00026">
<g id="layer1" transform="translate(0 -732.36)">
	<g id="text4279" transform="translate(0 732.36)">
		<g id="g9352">
			<g enable-background="new    ">
				<path fill="#FFFFFF" d="M12,217.4h81.7V100.8H22.7v-14h158.9v14h-71.4v116.6H192V231H12V217.4z"/>
				<path fill="#FFFFFF" d="M201.1,218.8H261V74.4h15.7v144.4h32.6V74.4H325v144.4h60.4v12.9H201.1V218.8z M222.8,108.6
					c10.2,22.5,20.1,46.4,29.7,71.7l-15.3,6.5c-8.3-24.6-17.7-48.8-28-72.5L222.8,108.6z M331.7,181.9
					c12.4-24.7,22.9-48.6,31.3-71.7l15.1,5.6c-11.6,27.9-22.6,51.8-33,71.8L331.7,181.9z"/>
				<path fill="#FFFFFF" d="M391.4,175.8c11.4-3.6,23.3-7.3,35.6-11.4v-41.3h-16.9c-2.5,11.1-5.5,21.2-9,30.4c-4-2.7-8-5.2-12.1-7.7
					c7-16,11.4-35.1,13.2-57.5l13.4,2.1c-0.9,7.3-1.9,14.3-3.2,21H427V72.1h14v39.3h18.5v11.7H441v36.6c6.1-2.1,12.3-4.2,18.7-6.4
					c0.6,5.1,1.3,9.6,2.1,13.3c-6.2,2.1-13.1,4.5-20.7,7.2v69.6h-14v-64.6c-9.9,3.5-20.9,7.4-32.8,11.8L391.4,175.8z M452.2,139.9
					c12.3-17.7,23.6-40.8,33.8-69.2l13.6,3.8c-3.5,9.3-7.1,17.9-10.6,25.9h80.9c-2.5,47-4.5,82.9-6.2,107.9
					c-1.4,19.5-11.3,29.2-29.8,29.2c-7,0-15.2-0.2-24.6-0.5c-0.6-4.3-1.5-9.3-2.6-14.9c10.8,1.2,19.4,1.7,25.7,1.7
					c10.1,0,15.6-5.4,16.6-16.1c2.2-24.6,4.2-56.2,6-94.9h-14.3c-3.2,29.7-8.5,53.1-15.8,70.3c-9.9,22.1-26.9,41.1-50.7,57
					c-2.7-3.6-5.9-7.2-9.5-10.7c23.3-15.4,39.4-33,48.3-53c7.2-16.4,11.8-37.6,13.9-63.6h-16.6c-3.4,22.3-8.4,40.1-15,53.7
					c-8.2,15.3-19.5,29-33.8,41.1c-3.1-3.7-6.3-7.2-9.7-10.3c14.2-11.5,24.7-23.7,31.5-36.4c6.7-12.9,11.1-29,13.2-48.1h-13.4
					c-6.3,13.2-12.7,24.5-19,33.7C461,144.6,457,142.4,452.2,139.9z"/>
				<path fill="#FFFFFF" d="M582,204.6c4.7-0.7,9.4-1.4,14.2-2.2V96.2H584V84h80.6v12.2h-14v97.2c5.7-1,11.3-2,17-3
					c0.2,4.8,0.7,8.9,1.3,12.2c-5.9,1.1-12,2.2-18.3,3.4v37H637v-34.3c-16,3-33.1,6.3-51.5,9.9L582,204.6z M609.8,121.7H637V96.2
					h-27.2V121.7z M609.8,159.1H637v-25.5h-27.2V159.1z M637,195.8V171h-27.2v29.2C618.9,198.8,628,197.3,637,195.8z M657.1,153
					h43.1c0.5-8.5,0.7-19.1,0.7-31.6h-38.5v-12.9h50.4c5.6-8.4,12.9-20.7,22-36.9l14.5,6.5c-7.7,11.2-14.9,21.4-21.5,30.4H759v12.9
					h-43.6c0,12.6-0.2,23.2-0.7,31.6h50.6V166h-48.8c9.5,27.9,26.6,48.5,51.4,62.1c-4.5,4.2-8.5,8.6-11.9,13.1
					c-22.1-15.7-37.6-35.3-46.6-58.9c-6.8,25-21.9,45.2-45.3,60.7c-3.9-4.5-7.3-8.3-10.4-11.4c25.9-15.3,41.1-37.2,45.5-65.6h-42
					V153z M669.4,78.7l10.8-7.2c7.5,7.9,14.5,16.6,21.1,26l-12.1,7.9C684,97.4,677.4,88.5,669.4,78.7z"/>
				<path fill="#FFFFFF" d="M802.6,118.2l11-5.4c7.4,11,14.8,22.3,22.1,33.7c6-12.2,11.2-24.3,15.6-36.4l12.7,4.4
					c-6.2,15.7-12.9,30.6-20.3,44.7c7.1,11.4,14.2,23.1,21.3,35l-12.7,6.3c-5.2-9.2-10.5-18.5-15.9-27.8
					c-7.6,13.5-15.9,26.2-24.7,38.1l-11.2-6v36.4h-14V81.5h158.9v140.2c0,12.5-7.2,18.7-21.4,18.7c-8,0-17.5-0.1-28.5-0.3
					c-0.6-3.7-1.5-8.3-2.6-13.6c10.4,0.8,19.3,1.2,26.7,1.2c8,0,11.9-3.2,11.9-9.6V94.1H800.4v110c10.7-14.7,20.1-29.5,28.3-44.1
					C820.3,146.1,811.7,132.2,802.6,118.2z M864.7,126.6l10.8-5.9c6.2,9.4,12.6,19.4,19.3,30c7.1-13.3,13.2-26.5,18.2-39.4l12.7,4.5
					c-7,16.6-14.7,32.5-23,47.5c7.8,12.6,15.9,25.9,24.3,40l-12.5,6.6c-6.2-11.1-12.7-22.3-19.4-33.6c-7.7,12.9-15.9,25.2-24.6,36.9
					l-11.4-6.8c10.7-14.5,20.1-28.8,28.3-42.8C880.2,151.5,872.6,139.1,864.7,126.6z"/>
				<path fill="#FFFFFF" d="M1086.3,167.4c18.4,19.2,36.7,39.6,54.8,61.2l-14,9.8c-4.5-5.8-9-11.4-13.4-16.9
					c-44.6,1.5-82.3,3.1-113,5c-5.3,0.6-10.4,1.5-15.1,2.8l-7.5-16.1c7.5-3.4,13.7-7.9,18.6-13.5c13.4-15.1,25.7-31.6,37-49.3h-67.2
					v-12.9h182.4v12.9H1054c-18.7,26-34.8,46.6-48.3,61.7c42.4-1,75.1-1.9,98-2.8c-9.9-11.8-19.8-23.2-29.7-34.3L1086.3,167.4z
					 M983.9,83.8h147.5v12.9H983.9V83.8z"/>
				<path fill="#FFFFFF" d="M1157.5,166h82.6V92.9h-74.2V79.4h164.9v13.5h-75V166h83.2v13.5h-83.2v64.3h-15.7v-64.3h-82.6V166z
					 M1175.4,112.1l11.7-7.7c13.9,15.3,25.9,30,36,44.2l-13.2,9.3C1200.3,143.4,1188.8,128.1,1175.4,112.1z M1270.3,148.5
					c13.7-13.5,26-28.4,36.9-44.8l14,8.4c-14,18.1-27.2,33.2-39.4,45.4L1270.3,148.5z"/>
				<path fill="#FFFFFF" d="M1478.1,94.1c19.5,17,38,34.4,55.4,52.3l-13.2,10.3c-5-5.5-10-10.9-15.1-16.2
					c-55.8,2.2-98.5,4.1-127.9,5.7c-6.8,0.5-13.4,1.4-19.8,2.8l-6.2-15c5.7-2,10.9-4.7,15.5-8.2c21.3-16.3,40.7-35.1,58.4-56.5l14,8
					c-18.6,20.5-38.1,38.7-58.4,54.7c38.1-1.1,75.6-2.4,112.5-3.8c-8.5-8.7-17.2-17.1-25.9-25.3L1478.1,94.1z M1505.5,163.5v79.4
					h-15.3v-11.5h-102.6v11.5h-15.3v-79.4H1505.5z M1490.2,176.4h-102.6v42.3h102.6V176.4z"/>
			</g>
		</g>
	</g>
</g>
</svg>
